<?xml version="1.0" standalone="no"?>
<!DOCTYPE svg PUBLIC "-//W3C//DTD SVG 20010904//EN"
 "http://www.w3.org/TR/2001/REC-SVG-20010904/DTD/svg10.dtd">
<svg version="1.0" xmlns="http://www.w3.org/2000/svg"
 width="200.000000pt" height="200.000000pt" viewBox="0 0 200.000000 200.000000"
 preserveAspectRatio="xMidYMid meet">

<g transform="translate(0.000000,200.000000) scale(0.100000,-0.100000)"
fill="#000000" stroke="none">
<path d="M915 1420 c-3 -5 -1 -10 4 -10 6 0 11 5 11 10 0 6 -2 10 -4 10 -3 0
-8 -4 -11 -10z"/>
<path d="M1015 1420 c-3 -5 -1 -10 4 -10 6 0 11 5 11 10 0 6 -2 10 -4 10 -3 0
-8 -4 -11 -10z"/>
<path d="M270 1380 c-12 -12 -20 -33 -20 -55 0 -61 25 -75 131 -75 l91 0 -59
-52 c-131 -118 -163 -154 -163 -184 0 -16 7 -40 16 -52 15 -21 20 -22 215 -22
186 0 200 1 219 20 24 24 26 67 4 98 -14 20 -23 22 -112 22 l-97 0 113 108
c124 118 134 141 87 187 -24 25 -26 25 -215 25 -177 0 -191 -1 -210 -20z"/>
<path d="M843 1388 c-2 -5 -1 -12 2 -18 3 -5 -3 -10 -14 -10 -19 0 -20 -7 -21
-195 0 -185 1 -195 19 -195 10 0 18 -6 17 -12 -2 -23 19 -20 26 4 5 21 6 21 7
-6 1 -21 5 -27 16 -22 8 3 15 1 15 -4 0 -5 19 -20 43 -34 46 -27 127 -49 127
-35 0 5 -11 9 -25 9 -33 0 -95 26 -95 39 0 6 -7 11 -15 11 -8 0 -15 4 -15 10
0 5 15 8 35 5 31 -4 35 -1 36 18 0 22 0 22 9 1 10 -26 51 -25 61 2 7 18 8 17
8 -3 1 -18 6 -21 29 -18 18 2 27 8 26 19 -1 10 6 16 17 16 12 0 19 7 19 20 0
13 5 18 15 14 10 -4 15 0 15 11 0 11 -5 15 -15 11 -10 -4 -15 1 -15 15 0 18
-6 20 -47 19 -83 -3 -88 -2 -89 23 -2 21 2 23 50 23 43 -1 51 2 50 17 -1 10 5
17 16 17 12 0 18 8 18 25 0 18 -6 25 -20 25 -12 0 -18 6 -16 18 2 11 -3 16
-14 14 -12 -2 -18 4 -18 18 0 11 -5 20 -10 20 -6 0 -10 -6 -8 -14 2 -8 -1 -15
-7 -15 -5 0 -9 6 -7 13 1 8 -9 13 -29 14 -22 0 -29 -3 -25 -13 3 -8 1 -17 -4
-20 -6 -4 -10 7 -10 22 l0 28 70 -1 c66 -2 70 -1 65 17 -4 11 -2 19 4 19 6 0
11 -9 11 -20 0 -11 5 -20 10 -20 6 0 10 20 10 45 0 37 -3 45 -19 45 -11 0 -18
7 -17 17 1 14 -15 16 -142 17 -79 1 -146 -2 -149 -6z m141 -83 c-4 -8 -11 -12
-16 -9 -6 4 -5 10 3 15 19 12 19 11 13 -6z m-67 -43 c-10 -10 -14 -22 -10 -27
5 -4 2 -5 -5 -1 -11 6 -10 12 4 27 9 10 19 19 22 19 3 0 -2 -8 -11 -18z m133
-32 c0 -5 -4 -10 -10 -10 -5 0 -10 5 -10 10 0 6 5 10 10 10 6 0 10 -4 10 -10z
m65 -30 c3 -5 1 -10 -4 -10 -6 0 -11 5 -11 10 0 6 2 10 4 10 3 0 8 -4 11 -10z
m-265 -70 c0 -5 -2 -10 -4 -10 -3 0 -8 5 -11 10 -3 6 -1 10 4 10 6 0 11 -4 11
-10z m270 6 c0 -3 -4 -8 -10 -11 -5 -3 -10 -1 -10 4 0 6 5 11 10 11 6 0 10 -2
10 -4z m-270 -36 c0 -5 -5 -10 -11 -10 -5 0 -7 5 -4 10 3 6 8 10 11 10 2 0 4
-4 4 -10z m165 -19 c-2 -35 -15 -36 -15 -2 0 18 4 30 8 27 5 -3 8 -14 7 -25z
m105 -115 c0 -3 -4 -8 -10 -11 -5 -3 -10 -1 -10 4 0 6 5 11 10 11 6 0 10 -2
10 -4z"/>
<path d="M1310 1385 c-11 -13 -4 -15 50 -15 54 0 61 2 50 15 -7 8 -29 15 -50
15 -21 0 -43 -7 -50 -15z"/>
<path d="M1630 1385 c-11 -13 -5 -15 44 -15 54 0 73 11 40 24 -28 11 -71 6
-84 -9z"/>
<path d="M810 1380 c0 -5 5 -10 10 -10 6 0 10 5 10 10 0 6 -4 10 -10 10 -5 0
-10 -4 -10 -10z"/>
<path d="M1150 1380 c0 -5 5 -10 10 -10 6 0 10 5 10 10 0 6 -4 10 -10 10 -5 0
-10 -4 -10 -10z"/>
<path d="M1185 1380 c3 -5 8 -10 11 -10 2 0 4 5 4 10 0 6 -5 10 -11 10 -5 0
-7 -4 -4 -10z"/>
<path d="M780 1350 c0 -5 5 -10 11 -10 5 0 7 5 4 10 -3 6 -8 10 -11 10 -2 0
-4 -4 -4 -10z"/>
<path d="M1180 1350 c0 -5 5 -10 10 -10 6 0 10 5 10 10 0 6 -4 10 -10 10 -5 0
-10 -4 -10 -10z"/>
<path d="M1297 1353 c-4 -3 -7 -12 -7 -20 0 -10 21 -13 85 -13 84 0 96 5 73
28 -13 13 -140 17 -151 5z"/>
<path d="M1607 1354 c-4 -4 -7 -13 -7 -21 0 -10 19 -13 76 -13 66 0 75 2 72
18 -3 14 -16 18 -69 20 -35 2 -68 0 -72 -4z"/>
<path d="M1180 1320 c0 -5 5 -10 10 -10 6 0 10 5 10 10 0 6 -4 10 -10 10 -5 0
-10 -4 -10 -10z"/>
<path d="M1290 1291 c0 -15 8 -21 33 -24 l32 -4 -32 -1 c-25 -2 -33 -7 -33
-21 0 -15 8 -21 33 -24 l32 -4 -32 -1 c-25 -2 -33 -7 -33 -21 0 -15 8 -21 33
-24 l32 -4 -32 -1 c-44 -3 -46 -32 -3 -32 17 0 30 -4 30 -10 0 -5 -13 -10 -30
-10 -42 0 -40 -27 3 -33 l32 -4 -32 -1 c-25 -2 -33 -7 -33 -21 0 -22 33 -29
108 -22 33 2 42 7 42 21 0 15 -9 20 -42 23 l-43 4 43 1 c30 1 42 6 42 17 0 11
-11 15 -40 15 -22 0 -40 5 -40 10 0 6 18 10 40 10 24 0 40 5 40 12 0 9 3 9 12
0 8 -8 52 -12 131 -12 76 0 116 -4 112 -10 -3 -6 -51 -10 -107 -10 -88 0 -99
-2 -88 -15 9 -11 38 -16 119 -17 l106 -2 -97 -3 c-54 -2 -98 -7 -98 -11 0 -23
31 -32 110 -34 l85 -2 -73 -3 c-96 -5 -95 -27 1 -31 78 -3 91 -22 16 -22 -45
0 -50 -2 -39 -15 7 -8 28 -15 46 -15 38 0 41 -8 19 -50 -9 -17 -11 -30 -6 -30
10 0 41 72 41 95 0 9 6 24 13 35 10 17 9 22 -3 30 -10 6 -11 10 -2 10 6 0 12
9 12 19 0 11 -6 22 -12 24 -10 4 -10 6 0 6 21 2 13 31 -8 31 -11 0 -20 5 -20
10 0 6 9 10 20 10 34 0 23 28 -12 33 l-33 4 33 1 c25 2 32 6 32 23 0 19 -5 21
-50 17 -28 -1 -50 0 -50 5 0 4 23 7 50 7 44 0 50 3 50 21 0 19 -5 20 -73 18
-67 -2 -124 10 -187 40 -8 4 -57 8 -107 10 -88 2 -93 1 -93 -18z m250 -20 c3
-1 21 -11 40 -23 33 -21 39 -23 58 -27 4 -1 -4 -7 -18 -15 -14 -7 -29 -9 -35
-4 -5 4 -59 9 -120 10 l-110 2 104 3 c102 4 103 4 86 23 -15 17 -31 20 -102
20 -45 0 -83 3 -83 8 0 5 143 8 180 3z m130 -101 c0 -6 -58 -9 -157 -8 l-158
2 155 6 c85 3 156 7 158 8 1 1 2 -2 2 -8z"/>
<path d="M1605 1300 c-13 -21 8 -30 76 -30 62 0 70 2 67 18 -3 14 -16 18 -70
20 -38 2 -69 -1 -73 -8z"/>
<path d="M780 1279 c0 -5 5 -7 10 -4 6 3 10 8 10 11 0 2 -4 4 -10 4 -5 0 -10
-5 -10 -11z"/>
<path d="M780 1250 c0 -5 5 -10 10 -10 6 0 10 5 10 10 0 6 -4 10 -10 10 -5 0
-10 -4 -10 -10z"/>
<path d="M1110 1250 c0 -5 7 -10 16 -10 8 0 12 5 9 10 -3 6 -10 10 -16 10 -5
0 -9 -4 -9 -10z"/>
<path d="M1150 1250 c0 -5 5 -10 10 -10 6 0 10 5 10 10 0 6 -4 10 -10 10 -5 0
-10 -4 -10 -10z"/>
<path d="M1150 1216 c0 -9 5 -16 10 -16 6 0 10 4 10 9 0 6 -4 13 -10 16 -5 3
-10 -1 -10 -9z"/>
<path d="M780 1180 c0 -5 5 -10 10 -10 6 0 10 5 10 10 0 6 -4 10 -10 10 -5 0
-10 -4 -10 -10z"/>
<path d="M1185 1180 c3 -5 8 -10 11 -10 2 0 4 5 4 10 0 6 -5 10 -11 10 -5 0
-7 -4 -4 -10z"/>
<path d="M780 1150 c0 -5 5 -10 10 -10 6 0 10 5 10 10 0 6 -4 10 -10 10 -5 0
-10 -4 -10 -10z"/>
<path d="M1185 1150 c-3 -5 -1 -10 4 -10 6 0 11 5 11 10 0 6 -2 10 -4 10 -3 0
-8 -4 -11 -10z"/>
<path d="M1150 1120 c0 -5 5 -10 11 -10 5 0 7 5 4 10 -3 6 -8 10 -11 10 -2 0
-4 -4 -4 -10z"/>
<path d="M780 1080 c0 -5 5 -10 10 -10 6 0 10 5 10 10 0 6 -4 10 -10 10 -5 0
-10 -4 -10 -10z"/>
<path d="M1050 1080 c0 -5 5 -10 10 -10 6 0 10 5 10 10 0 6 -4 10 -10 10 -5 0
-10 -4 -10 -10z"/>
<path d="M1080 1080 c0 -5 5 -10 10 -10 6 0 10 5 10 10 0 6 -4 10 -10 10 -5 0
-10 -4 -10 -10z"/>
<path d="M1115 1080 c3 -5 10 -10 16 -10 5 0 9 5 9 10 0 6 -7 10 -16 10 -8 0
-12 -4 -9 -10z"/>
<path d="M1150 1080 c0 -5 5 -10 10 -10 6 0 10 5 10 10 0 6 -4 10 -10 10 -5 0
-10 -4 -10 -10z"/>
<path d="M780 1050 c0 -5 5 -10 10 -10 6 0 10 5 10 10 0 6 -4 10 -10 10 -5 0
-10 -4 -10 -10z"/>
<path d="M1290 1004 c0 -11 15 -14 65 -14 36 0 68 0 73 -1 4 0 8 7 10 15 3 13
-10 15 -72 15 -59 0 -76 -4 -76 -15z"/>
<path d="M780 979 c0 -5 5 -7 10 -4 6 3 10 8 10 11 0 2 -4 4 -10 4 -5 0 -10
-5 -10 -11z"/>
<path d="M1180 980 c0 -5 5 -10 10 -10 6 0 10 5 10 10 0 6 -4 10 -10 10 -5 0
-10 -4 -10 -10z"/>
<path d="M1310 961 c0 -24 81 -29 100 -6 11 13 5 15 -44 15 -31 0 -56 -4 -56
-9z"/>
<path d="M810 950 c0 -5 5 -10 10 -10 6 0 10 5 10 10 0 6 -4 10 -10 10 -5 0
-10 -4 -10 -10z"/>
<path d="M1150 950 c0 -5 5 -10 10 -10 6 0 10 5 10 10 0 6 -4 10 -10 10 -5 0
-10 -4 -10 -10z"/>
<path d="M1406 694 c-3 -9 -6 -29 -6 -45 0 -17 -5 -39 -10 -50 -7 -13 -7 -19
-1 -19 11 0 17 21 25 88 6 44 3 53 -8 26z"/>
<path d="M461 664 c0 -11 3 -14 6 -6 3 7 2 16 -1 19 -3 4 -6 -2 -5 -13z"/>
<path d="M594 645 c0 -19 4 -31 8 -29 4 3 8 16 8 29 0 13 -4 26 -8 29 -4 2 -8
-10 -8 -29z"/>
<path d="M750 645 c0 -46 15 -46 16 0 0 19 -3 35 -8 35 -4 0 -8 -16 -8 -35z"/>
<path d="M931 671 c-7 -5 -11 -15 -9 -22 3 -10 8 -7 17 9 13 24 12 26 -8 13z"/>
<path d="M1064 645 c0 -19 4 -31 8 -29 4 3 8 16 8 29 0 13 -4 26 -8 29 -4 2
-8 -10 -8 -29z"/>
<path d="M1265 668 c-9 -29 -9 -51 0 -54 6 -2 10 12 11 31 1 36 -3 44 -11 23z"/>
<path d="M1540 645 c0 -46 15 -46 16 0 0 19 -3 35 -8 35 -4 0 -8 -16 -8 -35z"/>
<path d="M1725 668 c-9 -29 -9 -51 0 -54 6 -2 10 12 11 31 1 36 -3 44 -11 23z"/>
<path d="M260 663 c0 -5 9 -18 20 -28 11 -10 20 -14 20 -8 0 5 -9 18 -20 28
-11 10 -20 14 -20 8z"/>
<path d="M427 663 c-15 -14 -7 -53 11 -53 13 0 14 2 3 9 -8 5 -12 18 -8 30 5
22 4 25 -6 14z"/>
<path d="M891 644 c-1 -24 5 -33 24 -42 17 -8 25 -8 25 -1 0 6 -9 13 -19 16
-12 3 -22 16 -24 32 -4 24 -4 24 -6 -5z"/>
<path d="M1216 651 c-5 -14 -4 -27 3 -34 15 -15 18 -7 11 28 -6 29 -6 29 -14
6z"/>
<path d="M1680 655 c-7 -8 -10 -22 -6 -30 9 -25 21 -17 21 15 0 35 1 34 -15
15z"/>
</g>
</svg>
