<?xml version="1.0" standalone="no"?>
<!DOCTYPE svg PUBLIC "-//W3C//DTD SVG 20010904//EN"
 "http://www.w3.org/TR/2001/REC-SVG-20010904/DTD/svg10.dtd">
<svg version="1.0" xmlns="http://www.w3.org/2000/svg"
 width="200.000000pt" height="200.000000pt" viewBox="0 0 200.000000 200.000000"
 preserveAspectRatio="xMidYMid meet">

<g transform="translate(0.000000,200.000000) scale(0.100000,-0.100000)"
fill="#000000" stroke="none">
<path d="M455 1626 c-37 -17 -80 -62 -94 -99 -27 -70 -9 -178 38 -231 42 -47
62 -51 329 -56 l254 -5 -288 -260 c-165 -150 -300 -279 -316 -304 -23 -37 -28
-56 -28 -107 0 -74 11 -108 48 -148 53 -57 47 -56 602 -56 555 0 549 -1 602
56 36 39 48 74 48 145 0 84 -32 143 -95 178 -25 13 -73 17 -282 21 l-253 5
296 269 c223 202 301 278 315 310 22 49 25 143 5 189 -16 39 -61 82 -99 96
-45 17 -1043 14 -1082 -3z m805 -170 c0 -2 -137 -195 -303 -428 l-304 -423
364 -3 363 -2 0 -25 0 -25 -410 0 c-226 0 -410 1 -410 3 0 1 137 193 304 427
l303 425 -173 3 -174 2 0 25 0 25 220 0 c121 0 220 -2 220 -4z"/>
</g>
</svg>
